<svg width="55" height="58" viewBox="0 0 55 58" fill="none" xmlns="http://www.w3.org/2000/svg">
<g clip-path="url(#clip0)">
<g filter="url(#filter0_d)">
<mask id="path-2-inside-1" fill="white">
<path d="M27.8784 4.83813C15.397 4.83813 5.27759 15.6576 5.27759 29.0024C5.27759 41.0616 13.5413 51.0569 24.3478 52.8766V35.989H18.6066V29.0024H24.3478V23.6785C24.3478 17.6175 27.7224 14.2752 32.8827 14.2752C35.3555 14.2752 37.9458 14.7465 37.9458 14.7465V20.6891H35.0887C32.286 20.6891 31.409 22.5547 31.409 24.4663V28.9975H37.6723L36.671 35.9841H31.409V52.8718C42.2155 51.0617 50.4792 41.064 50.4792 29.0024C50.4792 15.6576 40.3598 4.83813 27.8784 4.83813Z"/>
</mask>
<path d="M24.3478 52.8766L19.3661 82.4601L54.3478 88.3508V52.8766H24.3478ZM24.3478 35.989H54.3478V5.98897H24.3478V35.989ZM18.6066 35.989H-11.3934V65.989H18.6066V35.989ZM18.6066 29.0024V-0.997615H-11.3934V29.0024H18.6066ZM24.3478 29.0024V59.0024H54.3478V29.0024H24.3478ZM37.9458 14.7465H67.9458V-10.2881L43.3155 -14.7691L37.9458 14.7465ZM37.9458 20.6891V50.689H67.9458V20.6891H37.9458ZM31.409 28.9975H1.40897V58.9976H31.409V28.9975ZM37.6723 28.9975L67.3688 33.2536L72.2784 -1.00245H37.6723V28.9975ZM36.671 35.9841V65.9841H62.6779L66.3675 40.2402L36.671 35.9841ZM31.409 35.9841V5.98413H1.40897V35.9841H31.409ZM31.409 52.8718H1.40897V88.3147L36.3649 82.4596L31.409 52.8718ZM27.8784 -25.1619C-3.03014 -25.1619 -24.7224 1.01076 -24.7224 29.0024H35.2776C35.2776 29.9712 34.894 31.247 33.8076 32.4085C32.6891 33.6044 30.5981 34.8381 27.8784 34.8381V-25.1619ZM-24.7224 29.0024C-24.7224 54.4882 -7.05353 78.0112 19.3661 82.4601L29.3295 23.2931C34.1361 24.1025 35.2776 27.6349 35.2776 29.0024H-24.7224ZM54.3478 52.8766V35.989H-5.65222V52.8766H54.3478ZM24.3478 5.98897H18.6066V65.989H24.3478V5.98897ZM48.6066 35.989V29.0024H-11.3934V35.989H48.6066ZM18.6066 59.0024H24.3478V-0.997615H18.6066V59.0024ZM54.3478 29.0024V23.6785H-5.65222V29.0024H54.3478ZM54.3478 23.6785C54.3478 26.0883 53.6132 31.821 48.6 37.1861C43.3769 42.7759 36.9575 44.2752 32.8827 44.2752V-15.7248C23.6476 -15.7248 12.9608 -12.5543 4.76026 -3.77821C-3.23038 4.77331 -5.65222 15.2076 -5.65222 23.6785H54.3478ZM32.8827 44.2752C32.4149 44.2752 32.3433 44.2451 32.6748 44.2859C32.7713 44.2978 32.8397 44.3083 32.8507 44.31C32.8535 44.3104 32.8356 44.3077 32.7927 44.3004C32.7711 44.2967 32.7427 44.2918 32.7069 44.2855C32.689 44.2823 32.6692 44.2788 32.6474 44.2749C32.6365 44.2729 32.6252 44.2709 32.6133 44.2687C32.6073 44.2677 32.6012 44.2666 32.595 44.2654C32.5919 44.2649 32.5888 44.2643 32.5856 44.2637C32.5841 44.2635 32.5817 44.263 32.5809 44.2629C32.5785 44.2624 32.5761 44.262 37.9458 14.7465C43.3155 -14.7691 43.313 -14.7695 43.3106 -14.7699C43.3098 -14.7701 43.3073 -14.7705 43.3057 -14.7708C43.3023 -14.7714 43.299 -14.7721 43.2955 -14.7727C43.2887 -14.7739 43.2817 -14.7752 43.2745 -14.7765C43.2601 -14.7791 43.245 -14.7818 43.2291 -14.7846C43.1974 -14.7903 43.1627 -14.7965 43.1253 -14.8031C43.0503 -14.8163 42.9639 -14.8313 42.8666 -14.8479C42.6724 -14.881 42.4328 -14.9206 42.1541 -14.9643C41.6022 -15.051 40.8684 -15.1583 40.0083 -15.2642C38.4264 -15.459 35.8232 -15.7248 32.8827 -15.7248V44.2752ZM7.94577 14.7465V20.6891H67.9458V14.7465H7.94577ZM37.9458 -9.31095H35.0887V50.689H37.9458V-9.31095ZM35.0887 -9.31095C26.4569 -9.31095 16.1834 -6.05885 8.85763 3.01313C2.45138 10.9464 1.40897 19.558 1.40897 24.4663H61.409C61.409 27.463 60.8051 34.186 55.538 40.7085C49.3514 48.3698 40.9178 50.689 35.0887 50.689V-9.31095ZM1.40897 24.4663V28.9975H61.409V24.4663H1.40897ZM31.409 58.9976H37.6723V-1.00245H31.409V58.9976ZM7.97571 24.7414L6.9744 31.728L66.3675 40.2402L67.3688 33.2536L7.97571 24.7414ZM36.671 5.98413H31.409V65.9841H36.671V5.98413ZM1.40897 35.9841V52.8718H61.409V35.9841H1.40897ZM36.3649 82.4596C62.8171 78.0289 80.4792 54.4785 80.4792 29.0024H20.4792C20.4792 27.6495 21.6139 24.0945 26.453 23.284L36.3649 82.4596ZM80.4792 29.0024C80.4792 1.01077 58.7869 -25.1619 27.8784 -25.1619V34.8381C25.1586 34.8381 23.0676 33.6044 21.9491 32.4085C20.8628 31.247 20.4792 29.9712 20.4792 29.0024H80.4792Z" fill="#DEE3E2" mask="url(#path-2-inside-1)"/>
</g>
</g>
<defs>
<filter id="filter0_d" x="1.27759" y="0.838135" width="53.2016" height="56.0385" filterUnits="userSpaceOnUse" color-interpolation-filters="sRGB">
<feFlood flood-opacity="0" result="BackgroundImageFix"/>
<feColorMatrix in="SourceAlpha" type="matrix" values="0 0 0 0 0 0 0 0 0 0 0 0 0 0 0 0 0 0 127 0"/>
<feOffset/>
<feGaussianBlur stdDeviation="2"/>
<feColorMatrix type="matrix" values="0 0 0 0 0 0 0 0 0 0 0 0 0 0 0 0 0 0 1 0"/>
<feBlend mode="normal" in2="BackgroundImageFix" result="effect1_dropShadow"/>
<feBlend mode="normal" in="SourceGraphic" in2="effect1_dropShadow" result="shape"/>
</filter>
<clipPath id="clip0">
<rect x="0.752441" width="54.2473" height="58" fill="white"/>
</clipPath>
</defs>
</svg>
