<svg width="48" height="48" viewBox="0 0 48 48" fill="none" xmlns="http://www.w3.org/2000/svg">
<path d="M26.9838 8.52093C27.0204 8.58334 27.0204 8.66061 26.9838 8.72301L18.295 23.5656C18.2585 23.628 18.2585 23.7053 18.295 23.7677L26.9838 38.6103C27.0204 38.6727 27.0204 38.75 26.9838 38.8124L24.3148 43.3718C24.2375 43.5038 24.0468 43.5038 23.9696 43.3718L12.4934 23.7677C12.4569 23.7053 12.4569 23.628 12.4934 23.5656L23.9696 3.9615C24.0468 3.82955 24.2375 3.82955 24.3148 3.9615L26.9838 8.52093Z" fill="white"/>
<path d="M29.9173 17.1138C29.9668 17.1833 29.9668 17.2765 29.9173 17.3459L25.2597 23.884C25.2103 23.9534 25.2103 24.0466 25.2597 24.116L29.9173 30.6541C29.9668 30.7235 29.9668 30.8167 29.9173 30.8861L28.5744 32.7713C28.4946 32.8833 28.3283 32.8833 28.2486 32.7713L22.0827 24.116C22.0332 24.0466 22.0332 23.9534 22.0827 23.884L28.2486 15.2287C28.3283 15.1167 28.4946 15.1167 28.5744 15.2287L29.9173 17.1138Z" fill="white"/>
</svg>
