<svg width="48" height="48" viewBox="0 0 48 48" fill="none" xmlns="http://www.w3.org/2000/svg">
<path d="M21.0162 8.52093C20.9796 8.58334 20.9796 8.66061 21.0162 8.72301L29.705 23.5656C29.7415 23.628 29.7415 23.7053 29.705 23.7677L21.0162 38.6103C20.9796 38.6727 20.9796 38.75 21.0162 38.8124L23.6852 43.3718C23.7625 43.5038 23.9532 43.5038 24.0304 43.3718L35.5066 23.7677C35.5431 23.7053 35.5431 23.628 35.5066 23.5656L24.0304 3.9615C23.9532 3.82955 23.7625 3.82955 23.6852 3.9615L21.0162 8.52093Z" fill="white"/>
<path d="M18.0827 17.1138C18.0332 17.1833 18.0332 17.2765 18.0827 17.3459L22.7403 23.884C22.7897 23.9534 22.7897 24.0466 22.7403 24.116L18.0827 30.6541C18.0332 30.7235 18.0332 30.8167 18.0827 30.8861L19.4256 32.7713C19.5054 32.8833 19.6717 32.8833 19.7514 32.7713L25.9173 24.116C25.9668 24.0466 25.9668 23.9534 25.9173 23.884L19.7514 15.2287C19.6717 15.1167 19.5054 15.1167 19.4256 15.2287L18.0827 17.1138Z" fill="white"/>
</svg>
