<svg width="56" height="58" viewBox="0 0 56 58" fill="none" xmlns="http://www.w3.org/2000/svg">
<g filter="url(#filter0_d)">
<path d="M48.2194 20.0703C48.1946 18.2409 47.8781 16.426 47.2724 14.715C46.2123 11.7932 44.0537 9.4829 41.321 8.3519C39.741 7.71631 38.0707 7.37556 36.38 7.3369C34.2056 7.23298 33.5162 7.20398 27.9965 7.20398C22.4768 7.20398 21.7694 7.20398 19.6108 7.3369C17.9223 7.37556 16.252 7.71631 14.672 8.3519C11.9393 9.4829 9.77844 11.7932 8.72062 14.715C8.12616 16.4042 7.80519 18.1901 7.77355 19.9954C7.67636 22.3226 7.64697 23.0597 7.64697 28.9612C7.64697 34.8627 7.64697 35.6167 7.77355 37.9271C7.80745 39.7347 8.12616 41.5182 8.72062 43.2123C9.7807 46.1316 11.9393 48.442 14.6743 49.573C16.2474 50.2303 17.9178 50.6025 19.613 50.6605C21.7897 50.7644 22.4791 50.7958 27.9988 50.7958C33.5184 50.7958 34.2259 50.7958 36.3845 50.6605C38.0729 50.6242 39.7433 50.2835 41.3255 49.6479C44.0582 48.5145 46.2168 46.2041 47.2769 43.2848C47.8714 41.5931 48.1901 39.8096 48.224 37.9996C48.3212 35.6747 48.3505 34.9376 48.3505 29.0337C48.346 23.1322 48.346 22.3831 48.2194 20.0703ZM27.9829 40.1214C22.2101 40.1214 17.5335 35.1213 17.5335 28.9491C17.5335 22.777 22.2101 17.7769 27.9829 17.7769C33.7512 17.7769 38.4323 22.777 38.4323 28.9491C38.4323 35.1213 33.7512 40.1214 27.9829 40.1214ZM38.8482 19.9688C37.4988 19.9688 36.4116 18.804 36.4116 17.3636C36.4116 15.9233 37.4988 14.7585 38.8482 14.7585C40.1931 14.7585 41.2826 15.9233 41.2826 17.3636C41.2826 18.804 40.1931 19.9688 38.8482 19.9688Z" fill="#DEE3E2"/>
</g>
<g filter="url(#filter1_d)">
<path d="M27.983 36.2064C31.7317 36.2064 34.7707 32.9572 34.7707 28.9491C34.7707 24.9411 31.7317 21.6919 27.983 21.6919C24.2343 21.6919 21.1953 24.9411 21.1953 28.9491C21.1953 32.9572 24.2343 36.2064 27.983 36.2064Z" fill="#DEE3E2"/>
</g>
<defs>
<filter id="filter0_d" x="3.64697" y="3.20398" width="48.7036" height="51.5918" filterUnits="userSpaceOnUse" color-interpolation-filters="sRGB">
<feFlood flood-opacity="0" result="BackgroundImageFix"/>
<feColorMatrix in="SourceAlpha" type="matrix" values="0 0 0 0 0 0 0 0 0 0 0 0 0 0 0 0 0 0 127 0"/>
<feOffset/>
<feGaussianBlur stdDeviation="2"/>
<feColorMatrix type="matrix" values="0 0 0 0 0 0 0 0 0 0 0 0 0 0 0 0 0 0 1 0"/>
<feBlend mode="normal" in2="BackgroundImageFix" result="effect1_dropShadow"/>
<feBlend mode="normal" in="SourceGraphic" in2="effect1_dropShadow" result="shape"/>
</filter>
<filter id="filter1_d" x="17.1953" y="17.6919" width="21.5754" height="22.5145" filterUnits="userSpaceOnUse" color-interpolation-filters="sRGB">
<feFlood flood-opacity="0" result="BackgroundImageFix"/>
<feColorMatrix in="SourceAlpha" type="matrix" values="0 0 0 0 0 0 0 0 0 0 0 0 0 0 0 0 0 0 127 0"/>
<feOffset/>
<feGaussianBlur stdDeviation="2"/>
<feColorMatrix type="matrix" values="0 0 0 0 0 0 0 0 0 0 0 0 0 0 0 0 0 0 1 0"/>
<feBlend mode="normal" in2="BackgroundImageFix" result="effect1_dropShadow"/>
<feBlend mode="normal" in="SourceGraphic" in2="effect1_dropShadow" result="shape"/>
</filter>
</defs>
</svg>
