<svg width="57" height="58" viewBox="0 0 57 58" fill="none" xmlns="http://www.w3.org/2000/svg">
<g filter="url(#filter0_d)">
<path d="M28.5724 4.83337C15.6843 4.83337 5.23926 15.6431 5.23926 28.9759C5.23926 39.2032 11.389 47.9467 20.0706 51.4654C19.8651 49.5562 19.6829 46.6176 20.15 44.5344C20.5751 42.6494 22.8874 32.5332 22.8874 32.5332C22.8874 32.5332 22.189 31.0856 22.189 28.9469C22.189 25.5925 24.0693 23.0865 26.4119 23.0865C28.4042 23.0865 29.3642 24.6331 29.3642 26.4867C29.3642 28.5602 28.0889 31.656 27.4326 34.527C26.8837 36.9291 28.5981 38.8891 30.887 38.8891C35.0328 38.8891 38.2233 34.365 38.2233 27.8328C38.2233 22.0521 34.2083 18.0115 28.4766 18.0115C21.8364 18.0115 17.9382 23.1638 17.9382 28.4877C17.9382 30.5612 18.7113 32.787 19.6759 33.9977C19.8651 34.237 19.8931 34.4448 19.8371 34.6889C19.6596 35.4501 19.2648 37.091 19.1901 37.427C19.0873 37.8692 18.8514 37.9635 18.4076 37.7508C15.4951 36.3467 13.6733 31.9387 13.6733 28.3959C13.6733 20.781 19.0196 13.7871 29.0909 13.7871C37.1863 13.7871 43.4762 19.7539 43.4762 27.7313C43.4762 36.0543 38.4055 42.7461 31.3681 42.7461C29.0021 42.7461 26.7809 41.4773 26.0195 39.9766C26.0195 39.9766 24.8494 44.5851 24.5644 45.7137C24.0389 47.8114 22.6165 50.4407 21.6659 52.0454C23.8497 52.7438 26.169 53.1208 28.5747 53.1208C41.4605 53.1208 51.9079 42.311 51.9079 28.9783C51.9079 15.6455 41.4582 4.83337 28.5724 4.83337Z" fill="#DEE3E2"/>
</g>
<defs>
<filter id="filter0_d" x="1.23926" y="0.833374" width="54.6686" height="56.2874" filterUnits="userSpaceOnUse" color-interpolation-filters="sRGB">
<feFlood flood-opacity="0" result="BackgroundImageFix"/>
<feColorMatrix in="SourceAlpha" type="matrix" values="0 0 0 0 0 0 0 0 0 0 0 0 0 0 0 0 0 0 127 0"/>
<feOffset/>
<feGaussianBlur stdDeviation="2"/>
<feColorMatrix type="matrix" values="0 0 0 0 0 0 0 0 0 0 0 0 0 0 0 0 0 0 1 0"/>
<feBlend mode="normal" in2="BackgroundImageFix" result="effect1_dropShadow"/>
<feBlend mode="normal" in="SourceGraphic" in2="effect1_dropShadow" result="shape"/>
</filter>
</defs>
</svg>
