<svg width="57" height="58" viewBox="0 0 57 58" fill="none" xmlns="http://www.w3.org/2000/svg">
<g filter="url(#filter0_d)">
<path d="M46.6532 19.3261C46.6836 19.7491 46.6836 20.1696 46.6836 20.5901C46.6836 33.4588 37.2172 48.2875 19.9171 48.2875C14.5871 48.2875 9.63555 46.6901 5.46875 43.9157C6.2255 44.0051 6.95422 44.0366 7.74134 44.0366C12.1394 44.0366 16.187 42.4996 19.4219 39.8775C15.2855 39.7881 11.8194 36.9847 10.6235 33.1277C11.2051 33.2171 11.789 33.2776 12.401 33.2776C13.2441 33.2776 14.092 33.1567 14.8791 32.9465C10.5651 32.0426 7.33493 28.1252 7.33493 23.3934V23.2726C8.58918 23.9951 10.0443 24.4471 11.5858 24.5075C9.05163 22.7626 7.39099 19.7781 7.39099 16.402C7.39099 14.5943 7.85578 12.9365 8.67092 11.4913C13.3025 17.3952 20.2651 21.2546 28.0708 21.6776C27.926 20.9526 27.8372 20.201 27.8372 19.447C27.8372 14.082 32.0321 9.71265 37.2452 9.71265C39.9546 9.71265 42.4 10.8871 44.119 12.7866C46.2445 12.3637 48.2812 11.5493 50.089 10.4352C49.3906 12.6948 47.9028 14.5943 45.9525 15.8002C47.8467 15.5876 49.6826 15.0462 51.3689 14.2922C50.089 16.2207 48.489 17.939 46.6532 19.3261Z" fill="#DEE3E2"/>
</g>
<defs>
<filter id="filter0_d" x="1.46875" y="5.71265" width="53.9002" height="46.5748" filterUnits="userSpaceOnUse" color-interpolation-filters="sRGB">
<feFlood flood-opacity="0" result="BackgroundImageFix"/>
<feColorMatrix in="SourceAlpha" type="matrix" values="0 0 0 0 0 0 0 0 0 0 0 0 0 0 0 0 0 0 127 0"/>
<feOffset/>
<feGaussianBlur stdDeviation="2"/>
<feColorMatrix type="matrix" values="0 0 0 0 0 0 0 0 0 0 0 0 0 0 0 0 0 0 1 0"/>
<feBlend mode="normal" in2="BackgroundImageFix" result="effect1_dropShadow"/>
<feBlend mode="normal" in="SourceGraphic" in2="effect1_dropShadow" result="shape"/>
</filter>
</defs>
</svg>
