<svg width="35" height="35" viewBox="0 0 35 35" fill="none" xmlns="http://www.w3.org/2000/svg">
<path d="M17.5 6.08331C14.6281 6.08331 12.2917 8.41977 12.2917 11.2916C12.2917 14.1635 14.6281 16.5 17.5 16.5C20.3719 16.5 22.7083 14.1635 22.7083 11.2916C22.7083 8.41977 20.3719 6.08331 17.5 6.08331ZM17.5 14.4166C15.7771 14.4166 14.375 13.0146 14.375 11.2916C14.375 9.56873 15.7771 8.16665 17.5 8.16665C19.2229 8.16665 20.625 9.56873 20.625 11.2916C20.625 13.0146 19.2229 14.4166 17.5 14.4166ZM26.875 25.875V24.8333C26.875 20.8135 23.6031 17.5416 19.5833 17.5416H15.4167C11.3958 17.5416 8.125 20.8135 8.125 24.8333V25.875H10.2083V24.8333C10.2083 21.9614 12.5448 19.625 15.4167 19.625H19.5833C22.4552 19.625 24.7917 21.9614 24.7917 24.8333V25.875H26.875Z" fill="white"/>
<circle cx="17.5" cy="17.5" r="16.5" stroke="white" stroke-width="2"/>
</svg>
